<svg width="32" height="32" viewBox="0 0 32 32" fill="none" xmlns="http://www.w3.org/2000/svg">
<path fill-rule="evenodd" clip-rule="evenodd" d="M27.482 11.1411C27.4821 10.265 27.3068 9.3974 26.9661 8.58792C26.6254 7.77844 26.126 7.04291 25.4964 6.42335C24.8668 5.80379 24.1193 5.31232 23.2967 4.97701C22.474 4.6417 21.5923 4.46912 20.7019 4.46912L6.56924 4.45416L4.38242 6.6829L20.7019 6.69262C21.2949 6.69292 21.8821 6.80823 22.4299 7.03198C22.9776 7.25572 23.4751 7.5835 23.8941 7.99659C24.313 8.40967 24.645 8.89994 24.8712 9.43938C25.0974 9.97882 25.2133 10.5568 25.2123 11.1404V31.9978H27.4774L27.482 11.1411Z" fill="#727D90"/>
<path fill-rule="evenodd" clip-rule="evenodd" d="M31.9972 11.1415C31.9972 4.99971 26.9379 0.000747489 20.6967 0.000747489L10.9347 0L8.75018 2.22874L20.6967 2.23024C25.6891 2.23024 29.7382 6.22851 29.7382 11.1422V31.9981H32.001L31.9972 11.1415Z" fill="#727D90"/>
<path fill-rule="evenodd" clip-rule="evenodd" d="M22.9581 11.1426C22.9557 10.5527 22.7161 9.98771 22.2917 9.57109C21.8673 9.15446 21.2925 8.92005 20.693 8.91907L2.1921 8.91383L-4.19617e-05 11.1403L20.693 11.1426V32H22.9596L22.9581 11.1426Z" fill="#727D90"/>
<path fill-rule="evenodd" clip-rule="evenodd" d="M4.54419 20.8533C4.54419 22.6231 5.25869 24.3203 6.53049 25.5717C7.8023 26.8231 9.52724 27.5261 11.3258 27.5261L14.1656 27.5246L16.3471 25.3019H11.3266C10.7334 25.3017 10.1461 25.1864 9.59818 24.9626C9.0503 24.7389 8.55263 24.4111 8.13363 23.9979C7.71464 23.5847 7.38255 23.0943 7.15635 22.5548C6.93015 22.0152 6.81428 21.437 6.81538 20.8533V10.3753H4.55104L4.54419 20.8533Z" fill="#727D90"/>
<path fill-rule="evenodd" clip-rule="evenodd" d="M9.85622 31.9066L11.9427 29.7683L11.3057 29.7661C6.31186 29.7661 2.26278 25.7671 2.26278 20.8533V10.7956L-4.19617e-05 11.1396L0.00299678 20.8526C0.00299678 26.5194 4.28846 31.214 9.85622 31.9066ZM9.03911 20.8526C9.04132 21.4429 9.281 22.0084 9.70575 22.4254C10.1305 22.8423 10.7058 23.0768 11.3057 23.0776H18.5085L20.6892 20.8556L11.3057 20.8533V10.3753H9.03835L9.03911 20.8526Z" fill="#727D90"/>
</svg>
