<svg width="239" height="18" viewBox="0 0 239 18" fill="none" xmlns="http://www.w3.org/2000/svg">
<path fill-rule="evenodd" clip-rule="evenodd" d="M4.7017 11.6748L3.72891 13.9612C3.53486 14.3783 3.19144 15.1409 3.19144 15.6079C3.19144 16.515 4.16679 16.6148 5.0681 16.6878V17.1305H0.00112915V16.6878C1.26755 16.5649 1.77948 15.9252 2.50972 14.2069L8.3031 0.5H8.74226L14.219 13.7642C14.8305 15.2381 15.2914 16.6161 17.0927 16.6878V17.1305H10.7376V16.6878C11.7858 16.6404 12.3934 16.4434 12.3934 15.5836C12.3934 15.0436 12.0041 14.2069 11.8087 13.7168L10.9317 11.6748H4.7017ZM7.86649 4.23347L5.0681 10.7933H10.6189L7.86649 4.23347Z" fill="#727D90"/>
<path fill-rule="evenodd" clip-rule="evenodd" d="M21.6427 14.0097C21.6427 16.076 21.6427 16.6889 23.9317 16.6889V17.1316H17.0673V16.6889C19.355 16.6889 19.355 16.076 19.355 14.0097V3.98895C19.355 1.92518 19.355 1.30977 17.0673 1.30977V0.867073H23.6394C27.4374 0.867073 29.36 3.00378 29.36 5.413C29.36 6.68991 28.654 9.88344 24.3441 9.88344C23.4441 9.88344 22.5415 9.71071 21.6414 9.51623L21.6427 14.0097ZM21.6427 8.80357C22.4041 8.96007 23.1788 9.04192 23.956 9.04795C25.5377 9.04795 26.6331 7.30404 26.6331 5.53454C26.6331 3.52067 25.3909 1.85098 23.2985 1.85098C22.7393 1.85013 22.1824 1.92414 21.6427 2.07105V8.80357ZM34.441 14.0097C34.441 16.076 34.441 16.6889 36.7313 16.6889V17.1316H29.8655V16.6889C32.1533 16.6889 32.1533 16.076 32.1533 14.0097V3.98895C32.1533 1.92518 32.1533 1.30977 29.8655 1.30977V0.867073H36.4377C40.2357 0.867073 42.1583 3.00378 42.1583 5.413C42.1583 6.68991 41.4536 9.88344 37.1424 9.88344C36.2423 9.88344 35.341 9.71071 34.4397 9.51623L34.441 14.0097ZM34.441 8.80357C35.2024 8.96007 35.9771 9.04192 36.7543 9.04795C38.3373 9.04795 39.4339 7.30404 39.4339 5.53454C39.4339 3.52067 38.1905 1.85098 36.0981 1.85098C35.5389 1.85098 34.9785 1.92391 34.4423 2.07105L34.441 8.80357ZM47.2393 13.9368C47.2393 15.1638 47.2393 16.076 48.3346 16.076H51.9386C53.8855 16.076 55.1034 15.2636 56.1247 12.6356L56.5141 12.7085L55.1276 17.1316H42.6613V16.6889C44.9503 16.6889 44.9503 16.076 44.9503 14.0097V3.98895C44.9503 1.92518 44.9503 1.30977 42.6613 1.30977V0.867073H49.9407V1.30977C47.238 1.30977 47.238 2.02242 47.238 4.23333L47.2393 13.9368Z" fill="#727D90"/>
<path fill-rule="evenodd" clip-rule="evenodd" d="M61.0357 14.0097C61.0357 16.076 61.0357 16.6889 63.3247 16.6889V17.1316H56.4603V16.6889C58.748 16.6889 58.748 16.076 58.748 14.0097V3.98895C58.748 1.92518 58.748 1.30977 56.4603 1.30977V0.867073H63.3247V1.30977C61.0357 1.30977 61.0357 1.9239 61.0357 3.98895V14.0097ZM70.2058 8.18944H73.4434C75.3673 8.18944 76.1205 7.9924 76.2686 5.8058H76.7064V11.4815H76.2686C76.0732 9.32048 75.4158 9.07226 73.4434 9.07226H70.2058V15.0192C70.2058 16.0261 70.4982 16.2462 71.5195 16.2462H74.8311C76.9745 16.2462 77.7533 15.2393 79.0197 13.0527H79.4831L78.1197 17.1316H65.6291V16.6889C67.9181 16.6889 67.9181 16.076 67.9181 14.0097V3.98895C67.9181 1.92518 67.9181 1.30977 65.6291 1.30977V0.867073H77.9971L78.2167 4.43037H77.7303C77.2669 1.94693 76.6094 1.75118 74.3217 1.75118H70.2071L70.2058 8.18944ZM82.5381 3.98895C82.5381 1.92518 82.5381 1.30977 80.2504 1.30977V0.867073H86.4829C88.6992 0.867073 91.3278 0.94256 93.2274 2.21946C95.4424 3.71899 96.4662 6.29839 96.4662 8.9264C96.4662 13.3725 93.5925 17.1303 87.7494 17.1303H80.2491V16.6876C82.5368 16.6876 82.5368 16.0748 82.5368 14.0084L82.5381 3.98895ZM84.8271 15.9263C85.6544 16.1234 86.5072 16.2462 87.36 16.2462C91.5218 16.2462 93.7393 12.9298 93.7393 8.99933C93.7393 4.97158 91.4988 1.75246 87.263 1.75246C86.4357 1.75246 85.6072 1.87785 84.8284 2.09791L84.8271 15.9263ZM106.289 3.52067H106.24V14.0084C106.24 16.0748 106.24 16.6876 108.528 16.6876V17.1303H102.906V16.6876C105.193 16.6876 105.193 16.0748 105.193 14.0084V3.96337C105.193 1.99684 104.949 1.30977 102.906 1.30977V0.867073H107.482L113.325 13.5913L119.095 0.867073H123.648V1.30977C121.359 1.30977 121.359 1.9239 121.359 3.98895V14.0097C121.359 16.076 121.359 16.6889 123.648 16.6889V17.1316H116.781V16.6889C119.07 16.6889 119.07 16.076 119.07 14.0097V3.52195H119.021L112.862 17.1316H112.473L106.289 3.52067Z" fill="#727D90"/>
<path fill-rule="evenodd" clip-rule="evenodd" d="M127.814 11.6748L126.841 13.9612C126.647 14.3783 126.305 15.1409 126.305 15.6079C126.305 16.515 127.278 16.6148 128.181 16.6878V17.1305H123.116V16.6878C124.383 16.5649 124.895 15.9252 125.622 14.2069L131.42 0.5H131.856L137.334 13.7642C137.946 15.2381 138.407 16.6161 140.209 16.6878V17.1305H133.853V16.6878C134.9 16.6404 135.509 16.4434 135.509 15.5836C135.509 15.0436 135.119 14.2069 134.925 13.7168L134.047 11.6748H127.814ZM130.982 4.23347L128.182 10.7933H133.733L130.982 4.23347Z" fill="#727D90"/>
<path fill-rule="evenodd" clip-rule="evenodd" d="M144.877 14.011C144.877 16.0773 144.877 16.6902 147.166 16.6902V17.1329H140.299V16.6902C142.591 16.6902 142.591 16.0773 142.591 14.011V1.92646H140.179C138.157 1.92646 137.548 3.15603 137.427 4.67731H136.988L137.16 0.868352H150.308L150.478 4.67731H150.039C149.919 3.15603 149.308 1.92646 147.289 1.92646H144.877V14.011ZM155.482 8.19071H158.721C160.644 8.19071 161.399 7.99368 161.544 5.80708H161.983V11.4828H161.544C161.35 9.32175 160.693 9.07353 158.721 9.07353H155.482V15.0205C155.482 16.0274 155.775 16.2475 156.798 16.2475H160.107C162.252 16.2475 163.03 15.2405 164.296 13.0539H164.757L163.394 17.1329H150.907V16.6902C153.193 16.6902 153.193 16.0773 153.193 14.011V3.99023C153.193 1.92646 153.193 1.31105 150.907 1.31105V0.868352H163.272L163.494 4.43165H163.005C162.545 1.94821 161.888 1.75246 159.597 1.75246H155.482V8.19071ZM177.237 17.1316L171.759 9.53927H170.104V14.0097C170.104 16.076 170.104 16.6889 172.393 16.6889V17.1316H165.528V16.6889C167.817 16.6889 167.817 16.076 167.817 14.0097V3.98895C167.817 1.92518 167.817 1.30977 165.528 1.30977V0.867073H172.515C177.263 0.867073 178.116 3.66782 178.116 5.09314C178.116 7.45247 176.24 8.77926 174.121 9.22196L177.263 13.6425C178.455 15.3148 179.332 16.5162 181.549 16.6889V17.1316H177.237ZM170.104 8.75496H170.64C172.953 8.75496 175.388 7.92074 175.388 5.19165C175.388 3.22768 174.074 1.75246 172.101 1.75246C171.421 1.75246 170.762 1.87784 170.105 1.97508L170.104 8.75496Z" fill="#727D90"/>
<path fill-rule="evenodd" clip-rule="evenodd" d="M185.762 14.0098C185.762 16.0762 185.762 16.689 188.051 16.689V17.1317H181.184V16.689C183.473 16.689 183.473 16.0762 183.473 14.0098V3.98909C183.473 1.92532 183.473 1.3099 181.184 1.3099V0.867209H188.051V1.3099C185.762 1.3099 185.762 1.92404 185.762 3.98909V14.0098ZM192.886 11.6748L191.91 13.9612C191.719 14.3783 191.374 15.1409 191.374 15.6079C191.374 16.515 192.349 16.6148 193.252 16.6878V17.1304H188.188V16.6878C189.454 16.5649 189.966 15.9252 190.694 14.2069L196.488 0.5H196.927L202.405 13.7642C203.014 15.2381 203.475 16.6161 205.278 16.6878V17.1304H198.924V16.6878C199.968 16.6404 200.58 16.4434 200.58 15.5836C200.58 15.0436 200.188 14.2069 199.994 13.7168L199.118 11.6748H192.886ZM196.05 4.23347L193.253 10.7933H198.804L196.05 4.23347Z" fill="#727D90"/>
<path fill-rule="evenodd" clip-rule="evenodd" d="M209.817 13.9368C209.817 15.1638 209.817 16.076 210.911 16.076H214.516C216.463 16.076 217.681 15.2636 218.702 12.6356L219.091 12.7085L217.705 17.1316H205.237V16.6889C207.526 16.6889 207.526 16.076 207.526 14.0097V3.98895C207.526 1.92518 207.526 1.30977 205.237 1.30977V0.867073H212.518V1.30977C209.815 1.30977 209.815 2.02242 209.815 4.23333L209.817 13.9368Z" fill="#727D90"/>
<path fill-rule="evenodd" clip-rule="evenodd" d="M228.165 6.12509H227.726C227.556 3.54314 225.9 1.45761 223.223 1.45761C221.834 1.45761 220.423 2.51444 220.423 3.98966C220.423 7.40327 229.237 7.9931 229.237 12.8064C229.237 15.3628 227.24 17.4995 224.148 17.4995C223.275 17.51 222.407 17.3524 221.593 17.0351C220.934 16.815 220.449 16.5924 219.864 16.5924C219.304 16.5924 219.181 17.0095 219.131 17.4995H218.692V11.9249H219.131C219.498 15.8554 222.467 16.5425 223.903 16.5425C225.536 16.5425 227.118 15.6827 227.118 13.8889C227.118 10.1554 218.548 9.7127 218.548 4.84819C218.548 2.34428 220.79 0.503127 223.32 0.503127C224.073 0.508847 224.818 0.66681 225.509 0.967571C226.121 1.1902 226.582 1.43458 226.898 1.43458C227.482 1.43458 227.629 0.994439 227.726 0.501846H228.165V6.12509Z" fill="#727D90"/>
<path fill-rule="evenodd" clip-rule="evenodd" d="M233.118 3.1983C233.118 2.59567 233.118 2.28605 232.566 2.28605V2.0711H234.686C235.703 2.0711 236.588 2.42806 236.588 3.3659C236.588 4.15789 235.955 4.51743 235.272 4.68504L236.409 6.30483C236.746 6.78463 236.841 6.92921 237.247 6.92921V7.14672H236.122L234.398 4.77971H233.954V6.49676C233.954 6.92921 234.326 6.92921 234.647 6.92921V7.14672H232.505V6.92921C233.117 6.92921 233.117 6.67715 233.117 5.99264L233.118 3.1983ZM234.063 4.5187C234.756 4.5187 235.621 4.3383 235.621 3.46187C235.621 2.80167 235.117 2.33466 234.46 2.33466C234.292 2.33466 234.123 2.36025 233.955 2.41655V4.5187H234.063ZM234.711 8.8113C233.613 8.8113 232.559 8.37409 231.782 7.59578C231.005 6.81747 230.568 5.76176 230.567 4.66072C230.594 3.57743 231.042 2.54754 231.816 1.79087C232.59 1.0342 233.629 0.610676 234.71 0.610676C235.791 0.610676 236.829 1.0342 237.603 1.79087C238.377 2.54754 238.826 3.57743 238.853 4.66072C238.852 5.76142 238.416 6.81694 237.639 7.59525C236.863 8.37356 235.809 8.81096 234.711 8.8113ZM234.711 0.869676C233.708 0.869676 232.746 1.26909 232.036 1.98005C231.327 2.69101 230.928 3.65527 230.928 4.66072C230.928 5.66617 231.327 6.63044 232.036 7.3414C232.746 8.05236 233.708 8.45177 234.711 8.45177C235.208 8.45295 235.7 8.35569 236.16 8.16556C236.619 7.97543 237.036 7.69618 237.388 7.34388C237.739 6.99158 238.017 6.57317 238.207 6.1127C238.396 5.65223 238.493 5.15878 238.491 4.66072C238.492 4.16281 238.395 3.66959 238.206 3.20935C238.016 2.74911 237.738 2.3309 237.386 1.97871C237.035 1.62651 236.618 1.34724 236.159 1.15693C235.7 0.966621 235.208 0.869002 234.711 0.869676Z" fill="#727D90"/>
</svg>
