<svg width="32" height="32" viewBox="0 0 32 32" fill="none" xmlns="http://www.w3.org/2000/svg">
  <!-- Background circle -->
  <circle cx="16" cy="16" r="16" fill="#1976d2"/>
  
  <!-- Main gear -->
  <g transform="translate(16, 16)">
    <!-- Gear teeth -->
    <path d="M-1,-8 L1,-8 L1,-6 L3,-6 L3,-3 L6,-3 L6,-1 L8,-1 L8,1 L6,1 L6,3 L3,3 L3,6 L1,6 L1,8 L-1,8 L-1,6 L-3,6 L-3,3 L-6,3 L-6,1 L-8,1 L-8,-1 L-6,-1 L-6,-3 L-3,-3 L-3,-6 L-1,-6 Z" fill="#ffffff"/>
    <!-- Inner circle -->
    <circle cx="0" cy="0" r="3" fill="#1976d2"/>
    <!-- Center hole -->
    <circle cx="0" cy="0" r="1.5" fill="#ffffff"/>
  </g>
  
  <!-- Small spanner -->
  <g transform="translate(8, 8) rotate(-30)">
    <rect x="-0.5" y="-4" width="1" height="8" fill="#ffffff" opacity="0.8"/>
    <circle cx="0" cy="-3" r="1" fill="#ffffff" opacity="0.8"/>
    <circle cx="0" cy="3" r="1" fill="#ffffff" opacity="0.8"/>
  </g>
  
  <!-- Small gear -->
  <g transform="translate(24, 8)">
    <!-- Mini gear teeth -->
    <path d="M-0.5,-3 L0.5,-3 L0.5,-2 L1.5,-2 L1.5,-1 L3,-1 L3,0 L2,0 L2,1 L1.5,1 L1.5,2 L0.5,2 L0.5,3 L-0.5,3 L-0.5,2 L-1.5,2 L-1.5,1 L-2,1 L-2,0 L-3,0 L-3,-1 L-1.5,-1 L-1.5,-2 L-0.5,-2 Z" fill="#ffffff" opacity="0.7"/>
    <!-- Inner circle -->
    <circle cx="0" cy="0" r="1.2" fill="#1976d2"/>
  </g>
</svg>
