<svg width="48" height="48" viewBox="0 0 48 48" fill="none" xmlns="http://www.w3.org/2000/svg">
  <!-- Background circle -->
  <circle cx="24" cy="24" r="24" fill="#1976d2"/>
  
  <!-- Main gear -->
  <g transform="translate(24, 24)">
    <!-- Gear teeth -->
    <path d="M-1.5,-12 L1.5,-12 L1.5,-9 L4.5,-9 L4.5,-4.5 L9,-4.5 L9,-1.5 L12,-1.5 L12,1.5 L9,1.5 L9,4.5 L4.5,4.5 L4.5,9 L1.5,9 L1.5,12 L-1.5,12 L-1.5,9 L-4.5,9 L-4.5,4.5 L-9,4.5 L-9,1.5 L-12,1.5 L-12,-1.5 L-9,-1.5 L-9,-4.5 L-4.5,-4.5 L-4.5,-9 L-1.5,-9 Z" fill="#ffffff"/>
    <!-- Inner circle -->
    <circle cx="0" cy="0" r="4.5" fill="#1976d2"/>
    <!-- Center hole -->
    <circle cx="0" cy="0" r="2.5" fill="#ffffff"/>
  </g>
  
  <!-- Small spanner -->
  <g transform="translate(12, 12) rotate(-30)">
    <rect x="-0.8" y="-6" width="1.6" height="12" fill="#ffffff" opacity="0.8"/>
    <circle cx="0" cy="-4.5" r="1.5" fill="#ffffff" opacity="0.8"/>
    <circle cx="0" cy="4.5" r="1.5" fill="#ffffff" opacity="0.8"/>
  </g>
  
  <!-- Small gear -->
  <g transform="translate(36, 12)">
    <!-- Mini gear teeth -->
    <path d="M-0.8,-4.5 L0.8,-4.5 L0.8,-3 L2.3,-3 L2.3,-1.5 L4.5,-1.5 L4.5,-0.8 L3,-0.8 L3,0.8 L2.3,0.8 L2.3,3 L0.8,3 L0.8,4.5 L-0.8,4.5 L-0.8,3 L-2.3,3 L-2.3,1.5 L-3,1.5 L-3,0.8 L-4.5,0.8 L-4.5,-0.8 L-2.3,-0.8 L-2.3,-1.5 L-0.8,-1.5 Z" fill="#ffffff" opacity="0.7"/>
    <!-- Inner circle -->
    <circle cx="0" cy="0" r="1.8" fill="#1976d2"/>
  </g>
</svg>
